Coordinates
version=1
nRows=14
nColumns=40
inDegrees=yes

Units are S.I. units (second, meters, Newtons, ...)
Angles are in degrees.

endheader
time	pelvis_tilt	pelvis_list	pelvis_rotation	pelvis_tx	pelvis_ty	pelvis_tz	hip_flexion_r	hip_adduction_r	hip_rotation_r	knee_angle_r	knee_angle_r_beta	ankle_angle_r	subtalar_angle_r	mtp_angle_r	hip_flexion_l	hip_adduction_l	hip_rotation_l	knee_angle_l	knee_angle_l_beta	ankle_angle_l	subtalar_angle_l	mtp_angle_l	lumbar_extension	lumbar_bending	lumbar_rotation	arm_flex_r	arm_add_r	arm_rot_r	elbow_flex_r	pro_sup_r	wrist_flex_r	wrist_dev_r	arm_flex_l	arm_add_l	arm_rot_l	elbow_flex_l	pro_sup_l	wrist_flex_l	wrist_dev_l
      7.93714286	     -3.36512510	     -3.64723946	      0.23946538	      0.92268309	      0.93650874	      0.43621628	     34.23303919	     -5.14746259	     -6.25273581	     53.12246477	     53.12246477	      2.26124154	    -13.68051851	      1.43483767	      7.57949489	     -2.73427547	    -10.24570395	     14.72944207	     14.72944207	     12.59774427	     -8.40253351	     -4.00327814	    -10.14446802	      5.32109633	      2.21496629	     -2.14300674	    -12.68271735	     -8.69048676	     21.97804167	     47.36097075	      0.00000000	      0.00000000	     17.08945054	    -12.85163875	     -1.83564055	     60.16987696	     46.59491169	      0.00000000	      0.00000000
      7.94928571	     -3.44642183	     -3.69252377	      0.08927697	      0.92205271	      0.93605902	      0.43625354	     34.27282456	     -4.92890869	     -6.53555706	     49.57887106	     49.57887106	      2.09233195	    -12.76911622	      1.62201279	      7.09656469	     -2.76819405	    -10.33870414	     14.57243066	     14.57243066	     12.88045874	     -8.36041496	     -4.06895198	    -10.19051284	      5.45855536	      2.25210325	     -3.70986293	    -13.04257987	     -9.04909298	     21.25842904	     47.41124318	      0.00000000	      0.00000000	     17.77227354	    -13.04378533	     -2.18640415	     61.65160933	     46.65395629	      0.00000000	      0.00000000
      7.96142857	     -3.54237963	     -3.64520354	     -0.08904607	      0.92152873	      0.93545420	      0.43644823	     34.13666863	     -4.77703744	     -6.90406127	     45.69410460	     45.69410460	      1.48311798	    -11.89339142	      0.41899218	      6.62048294	     -2.74254905	    -10.64290376	     14.43744736	     14.43744736	     13.28745131	     -8.02253407	     -4.06980229	    -10.30904429	      5.45953923	      1.97340432	     -5.05044823	    -13.21430646	    -10.83425503	     21.02444290	     47.57484824	      0.00000000	      0.00000000	     17.29418724	    -13.53444350	     -3.08856561	     65.86534245	     46.81085562	      0.00000000	      0.00000000
      7.97357143	     -3.69493857	     -3.67312183	     -0.23283484	      0.92104111	      0.93478377	      0.43674911	     33.90723060	     -4.52337207	     -7.43595382	     41.63627357	     41.63627357	      1.27249069	    -10.57134995	      0.72368017	      6.21047298	     -2.76967138	    -10.70921953	     14.28918128	     14.28918128	     13.58730434	     -8.00893378	     -4.14785446	    -10.23329702	      5.55968029	      2.06889372	     -6.47987887	    -13.54532631	    -11.11620001	     20.44982297	     47.61258003	      0.00000000	      0.00000000	     17.94274210	    -13.62463814	     -3.39562004	     67.04527714	     46.86211032	      0.00000000	      0.00000000
      7.98571429	     -3.79103733	     -3.62571262	     -0.42763406	      0.92071167	      0.93405967	      0.43726521	     33.47057359	     -4.29296603	     -8.03276657	     37.43757519	     37.43757519	      1.07721095	     -8.83968026	      0.77880067	      5.69775504	     -2.73273889	    -10.88807755	     14.10880099	     14.10880099	     13.93983789	     -7.86965469	     -4.23748941	    -10.28626568	      5.52972319	      2.37179512	     -7.96865713	    -13.78017371	    -11.55514122	     20.15648674	     47.65051568	      0.00000000	      0.00000000	     18.41027193	    -13.68707350	     -3.78938601	     69.10536016	     46.93547868	      0.00000000	      0.00000000
      7.99785714	     -4.02700352	     -3.59798286	     -0.57200924	      0.92048452	      0.93310908	      0.43781835	     33.02238241	     -3.98577821	     -8.70118740	     33.13064536	     33.13064536	      0.77869385	     -7.18839856	      1.22475155	      5.34129794	     -2.71299280	    -11.04197857	     13.92898659	     13.92898659	     14.23090127	     -7.81842896	     -4.32840516	    -10.05379444	      5.61725489	      2.38785974	     -9.26063814	    -13.98802105	    -11.83009980	     19.95215487	     47.67094319	      0.00000000	      0.00000000	     18.74654901	    -13.85827857	     -4.06042626	     70.57172459	     46.98621688	      0.00000000	      0.00000000
      8.01000000	     -4.03400460	     -3.46353169	     -0.75263720	      0.92061409	      0.93226868	      0.43859125	     32.22759494	     -3.82506043	     -9.69338058	     28.93860596	     28.93860596	      0.45312279	     -4.67222588	      1.06415717	      4.66715458	     -2.60758769	    -11.37596734	     13.69972284	     13.69972284	     14.63831532	     -7.38513180	     -4.42318365	    -10.20334588	      5.43314382	      2.35415122	    -10.74850624	    -14.14748812	    -12.81351625	     20.82245949	     47.69664069	      0.00000000	      0.00000000	     18.26955543	    -14.13060695	     -4.73519359	     74.48502162	     47.11957257	      0.00000000	      0.00000000
      8.02214286	     -4.14533749	     -3.48221004	     -0.87615868	      0.92081233	      0.93122832	      0.43960456	     31.41840168	     -3.32016968	    -10.39412527	     24.81225049	     24.81225049	      0.14192896	     -2.93012761	      1.91397280	      4.18408252	     -2.66498158	    -11.41006200	     13.60001725	     13.60001725	     14.99820041	     -7.43203749	     -4.55941458	    -10.06839889	      5.49100617	      2.36720495	    -11.82061523	    -14.33523563	    -13.05188612	     20.69969592	     47.70868360	      0.00000000	      0.00000000	     18.54817104	    -14.27657046	     -4.99823076	     75.68429009	     47.16755612	      0.00000000	      0.00000000
      8.03428571	     -4.13648220	     -3.35536011	     -1.02146090	      0.92133826	      0.93014506	      0.44068152	     30.57684581	     -3.08369050	    -11.48446455	     21.34332808	     21.34332808	      0.30261482	     -0.30811679	      3.28230297	      3.45392399	     -2.56219849	    -11.64208150	     13.33402783	     13.33402783	     15.38283650	     -7.16353011	     -4.72495305	    -10.11633883	      5.34496525	      2.36228025	    -12.98665993	    -14.40595052	    -13.69088903	     21.37126931	     47.70551122	      0.00000000	      0.00000000	     18.28362764	    -14.47831666	     -5.50794121	     78.48363019	     47.27497359	      0.00000000	      0.00000000
      8.04642857	     -4.17520797	     -3.32859792	     -1.12654464	      0.92202924	      0.92889623	      0.44196950	     29.81960185	     -2.67896262	    -12.38837659	     18.39742218	     18.39742218	      0.67508211	      1.63457579	      5.47059802	      2.82683724	     -2.57936319	    -11.73587446	     13.17643197	     13.17643197	     15.76941381	     -7.11961346	     -4.85466484	    -10.02130272	      5.32610832	      2.26764597	    -13.91085869	    -14.49395820	    -14.23449805	     21.86539068	     47.69297829	      0.00000000	      0.00000000	     18.04933248	    -14.68498418	     -5.97302099	     80.52320192	     47.37638718	      0.00000000	      0.00000000
      8.05857143	     -4.25897102	     -3.28297374	     -1.23265451	      0.92282737	      0.92747430	      0.44344662	     29.14583733	     -2.23212679	    -12.92301349	     15.92972246	     15.92972246	      0.55022094	      2.75659786	      6.37953887	      2.27992131	     -2.58618950	    -11.74017771	     13.08614224	     13.08614224	     16.18933605	     -7.21206246	     -4.97801664	     -9.79888388	      5.29510156	      2.39549832	    -14.59459924	    -14.46403981	    -14.31384099	     21.71519806	     47.69346559	      0.00000000	      0.00000000	     18.28399834	    -14.72088695	     -6.09608727	     81.35487118	     47.40777769	      0.00000000	      0.00000000
      8.07071429	     -4.18658004	     -3.32998199	     -1.29133426	      0.92398221	      0.92619449	      0.44499253	     28.37463700	     -1.80445253	    -13.71204124	     14.17248834	     14.17248834	      0.63970366	      3.89090258	      7.24869805	      1.50845417	     -2.69437998	    -11.75324393	     12.94408721	     12.94408721	     16.63515137	     -7.20751296	     -5.03492145	     -9.72925426	      5.37429371	      2.54791340	    -15.23175381	    -14.49484816	    -14.43515540	     21.69196943	     47.69117436	      0.00000000	      0.00000000	     18.30063162	    -14.69481096	     -6.18256324	     82.53332069	     47.44352501	      0.00000000	      0.00000000
      8.08285714	     -4.15393718	     -3.38998749	     -1.35450081	      0.92529652	      0.92483119	      0.44669221	     27.75560076	     -1.41265463	    -14.38081090	     13.10541037	     13.10541037	      0.82699292	      4.73255243	      7.88671761	      0.77342969	     -2.83227992	    -11.75707276	     12.81478052	     12.81478052	     17.13283062	     -7.16415627	     -4.99197448	     -9.61718603	      5.44671832	      2.61832468	    -15.68288852	    -14.47120930	    -14.57299195	     21.78461488	     47.68577300	      0.00000000	      0.00000000	     18.14066186	    -14.71768386	     -6.27858120	     83.77972661	     47.48163866	      0.00000000	      0.00000000
      8.09500000	     -4.26908524	     -3.31400351	     -1.42308280	      0.92656327	      0.92310296	      0.44849033	     27.62173181	     -1.22799801	    -14.62125044	     13.03966433	     13.03966433	      0.97915239	      4.65199495	      7.87570042	      0.29336760	     -2.84151410	    -11.77333840	     12.83608535	     12.83608535	     17.56931499	     -7.28762208	     -5.11013074	     -9.23170658	      5.37324854	      2.60036071	    -15.77936972	    -14.44475673	    -14.58555036	     21.76911539	     47.68584249	      0.00000000	      0.00000000	     18.15834923	    -14.75443826	     -6.30677234	     83.90097469	     47.48654802	      0.00000000	      0.00000000
